<svg xmlns="http://www.w3.org/2000/svg" viewBox="0 0 64 64" fill="none">
  <path d="M32 8c-4.4 0-8 3.1-8.9 7.2-3.2.8-5.8 3.2-6.8 6.3-3.5 1.2-6.3 4.2-7.1 8-.8 4 .5 8.1 3.4 10.8-.5 4.2 1.4 8.4 5 10.7 2.8 1.8 6.2 2.2 9.2 1.2 2.1 2.5 5.2 4 8.5 4h.2c3.3 0 6.4-1.5 8.5-4 3 1 6.4.6 9.2-1.2 3.6-2.3 5.5-6.5 5-10.7 2.9-2.7 4.2-6.8 3.4-10.8-.8-3.8-3.6-6.8-7.1-8-1-3.1-3.6-5.5-6.8-6.3C47 11.1 43.4 8 39 8h-7z" fill="#00bfff" stroke="#0a3d5c" stroke-width="2"/>
  <path d="M26 28c0 3.3 2.7 6 6 6s6-2.7 6-6" stroke="#0a3d5c" stroke-width="2" stroke-linecap="round"/>
  <path d="M20 24c1.5-2 3.5-3 6-3M44 24c-1.5-2-3.5-3-6-3" stroke="#0a3d5c" stroke-width="2" stroke-linecap="round"/>
  <path d="M18 36c2-1 4-1.5 6-1M46 36c-2-1-4-1.5-6-1" stroke="#0a3d5c" stroke-width="2" stroke-linecap="round"/>
  <path d="M22 44c2 1 4 1.5 6 1.5M42 44c-2 1-4 1.5-6 1.5" stroke="#0a3d5c" stroke-width="2" stroke-linecap="round"/>
  <path d="M32 34v18" stroke="#0a3d5c" stroke-width="2" stroke-linecap="round"/>
</svg>
