<svg xmlns="http://www.w3.org/2000/svg" xmlns:xlink="http://www.w3.org/1999/xlink" width="500" zoomAndPan="magnify" viewBox="15 85 345 280" height="500" preserveAspectRatio="xMidYMid meet" version="1.0"><defs><g/><clipPath id="fc80bf634d"><path d="M 222.265625 197.136719 L 239.515625 197.136719 L 239.515625 214.386719 L 222.265625 214.386719 Z M 222.265625 197.136719 " clip-rule="nonzero"/></clipPath><clipPath id="a55235cbcd"><rect x="0" width="125" y="0" height="203"/></clipPath><clipPath id="b83452b793"><rect x="0" width="112" y="0" height="203"/></clipPath><clipPath id="ab19a8d126"><rect x="0" width="32" y="0" height="26"/></clipPath><clipPath id="c1e878a9fe"><rect x="0" width="12" y="0" height="17"/></clipPath></defs><g clip-path="url(#fc80bf634d)"><path fill="#f6d636" d="M 222.28125 206.074219 C 222.453125 205.957031 222.664062 205.929688 222.859375 205.878906 C 223.242188 205.773438 223.640625 205.726562 224.019531 205.59375 C 224.609375 205.382812 225.214844 205.199219 225.78125 204.929688 C 226.410156 204.632812 227.011719 204.289062 227.585938 203.894531 C 227.839844 203.71875 228.082031 203.527344 228.304688 203.3125 C 228.730469 202.902344 229.082031 202.4375 229.363281 201.917969 C 229.65625 201.367188 229.832031 200.773438 230.019531 200.1875 C 230.234375 199.5 230.417969 198.804688 230.5625 198.101562 C 230.609375 197.871094 230.628906 197.632812 230.664062 197.402344 C 230.683594 197.308594 230.730469 197.234375 230.804688 197.175781 C 230.855469 197.132812 230.90625 197.164062 230.945312 197.25 C 231.042969 197.472656 231.121094 197.703125 231.179688 197.9375 C 231.351562 198.558594 231.542969 199.175781 231.761719 199.777344 C 231.933594 200.230469 232.136719 200.664062 232.367188 201.085938 C 232.492188 201.324219 233.253906 202.65625 233.417969 202.855469 C 233.808594 203.359375 234.292969 203.753906 234.859375 204.039062 C 235.148438 204.179688 235.449219 204.292969 235.757812 204.375 C 236.175781 204.492188 236.589844 204.644531 237.003906 204.769531 C 237.527344 204.929688 238.0625 205.050781 238.605469 205.128906 C 238.882812 205.179688 239.152344 205.246094 239.421875 205.328125 C 239.496094 205.351562 239.507812 205.40625 239.460938 205.46875 C 239.417969 205.507812 239.371094 205.535156 239.316406 205.550781 C 239.125 205.625 238.929688 205.683594 238.730469 205.726562 C 238.183594 205.875 237.652344 206.0625 237.132812 206.296875 C 236.421875 206.601562 235.761719 207 235.15625 207.492188 C 234.949219 207.664062 234.726562 207.824219 234.507812 207.988281 C 234.1875 208.230469 233.953125 208.550781 233.710938 208.871094 C 232.777344 210.0625 231.761719 213.867188 231.699219 214.179688 C 231.691406 214.210938 231.683594 214.242188 231.671875 214.273438 C 231.652344 214.316406 231.636719 214.378906 231.589844 214.378906 C 231.535156 214.367188 231.496094 214.335938 231.472656 214.28125 C 231.132812 213.601562 230.761719 212.9375 230.371094 212.289062 C 230.011719 211.691406 229.667969 211.085938 229.28125 210.503906 C 228.9375 209.980469 228.566406 209.476562 228.167969 208.992188 C 227.613281 208.339844 226.949219 207.824219 226.183594 207.453125 C 225.660156 207.199219 225.117188 206.992188 224.558594 206.835938 C 224.082031 206.703125 223.609375 206.539062 223.128906 206.402344 C 222.90625 206.339844 222.691406 206.242188 222.449219 206.246094 C 222.382812 206.25 222.332031 206.191406 222.28125 206.152344 Z M 222.28125 206.074219 " fill-opacity="1" fill-rule="nonzero"/></g><g transform="matrix(1, 0, 0, 1, 178, 92)"><g clip-path="url(#a55235cbcd)"><g fill="#f93d3a" fill-opacity="1"><g transform="translate(0.979158, 161.18101)"><g><path d="M 31.90625 -114.796875 C 37.414062 -115.410156 42.75 -115.867188 47.90625 -116.171875 C 50.457031 -116.328125 53.363281 -116.40625 56.625 -116.40625 C 59.539062 -116.457031 62.398438 -116.378906 65.203125 -116.171875 C 68.265625 -115.960938 70.941406 -115.707031 73.234375 -115.40625 C 75.941406 -114.945312 78.1875 -114.460938 79.96875 -113.953125 C 82.164062 -113.234375 83.851562 -112.519531 85.03125 -111.8125 C 89.414062 -109.050781 92.957031 -105.734375 95.65625 -101.859375 C 98.3125 -97.929688 98.644531 -93.363281 96.65625 -88.15625 C 96.5 -87.695312 96.320312 -87.265625 96.125 -86.859375 C 94.382812 -82.929688 91.753906 -79.382812 88.234375 -76.21875 C 87.929688 -75.914062 87.472656 -75.507812 86.859375 -75 C 86.554688 -74.75 86.046875 -74.367188 85.328125 -73.859375 C 85.679688 -73.703125 86.066406 -73.570312 86.484375 -73.46875 C 86.835938 -73.3125 87.21875 -73.1875 87.625 -73.09375 C 87.976562 -72.9375 88.363281 -72.804688 88.78125 -72.703125 C 89.132812 -72.546875 89.488281 -72.421875 89.84375 -72.328125 C 93.675781 -70.742188 97.097656 -68.929688 100.109375 -66.890625 C 100.515625 -66.628906 101.125 -66.195312 101.9375 -65.59375 C 105.050781 -63.238281 107.9375 -60.503906 110.59375 -57.390625 C 113.238281 -54.234375 114.992188 -50.738281 115.859375 -46.90625 C 116.066406 -45.84375 116.222656 -44.773438 116.328125 -43.703125 C 116.734375 -35.078125 114.285156 -28.132812 108.984375 -22.875 C 103.617188 -17.625 97.1875 -13.625 89.6875 -10.875 C 86.9375 -9.851562 83.625 -8.832031 79.75 -7.8125 C 75.664062 -6.738281 71.941406 -5.921875 68.578125 -5.359375 C 63.472656 -4.390625 58.265625 -3.519531 52.953125 -2.75 C 47.597656 -1.9375 42.34375 -1.144531 37.1875 -0.375 C 36.375 -0.175781 35.148438 -0.0507812 33.515625 0 L 29.765625 0 C 25.328125 0 21.628906 -0.535156 18.671875 -1.609375 C 15.660156 -2.628906 13.132812 -5.128906 11.09375 -9.109375 C 9.96875 -11.253906 9.050781 -13.523438 8.34375 -15.921875 C 7.570312 -18.265625 6.929688 -20.609375 6.421875 -22.953125 C 3.972656 -33.210938 2.367188 -44.109375 1.609375 -55.640625 C 0.835938 -67.117188 0.914062 -78.113281 1.84375 -88.625 C 2.144531 -91.6875 2.523438 -94.363281 2.984375 -96.65625 C 2.984375 -96.863281 3.007812 -97.066406 3.0625 -97.265625 C 3.113281 -97.472656 3.164062 -97.703125 3.21875 -97.953125 C 3.21875 -98.109375 3.269531 -98.316406 3.375 -98.578125 C 3.414062 -98.773438 3.460938 -98.976562 3.515625 -99.1875 C 3.617188 -99.539062 3.722656 -99.972656 3.828125 -100.484375 C 4.023438 -101.148438 4.148438 -101.582031 4.203125 -101.78125 C 4.921875 -104.03125 5.84375 -105.992188 6.96875 -107.671875 C 8.039062 -109.359375 9.800781 -110.632812 12.25 -111.5 C 12.550781 -111.601562 12.851562 -111.707031 13.15625 -111.8125 C 13.46875 -111.863281 13.773438 -111.960938 14.078125 -112.109375 C 19.335938 -113.179688 25.28125 -114.078125 31.90625 -114.796875 Z M 35.046875 -81.421875 C 35.046875 -81.328125 35.070312 -81.226562 35.125 -81.125 C 35.125 -81.019531 35.125 -80.941406 35.125 -80.890625 C 35.125 -80.785156 35.148438 -80.6875 35.203125 -80.59375 C 35.203125 -80.488281 35.203125 -80.410156 35.203125 -80.359375 L 35.359375 -79.828125 C 35.765625 -77.835938 37.140625 -76.890625 39.484375 -76.984375 C 41.785156 -77.085938 43.773438 -77.421875 45.453125 -77.984375 C 45.660156 -78.085938 45.84375 -78.140625 46 -78.140625 C 46.050781 -78.140625 46.125 -78.164062 46.21875 -78.21875 C 46.269531 -78.269531 46.347656 -78.320312 46.453125 -78.375 C 46.753906 -78.46875 46.929688 -78.515625 46.984375 -78.515625 C 50.046875 -79.847656 52.472656 -82.046875 54.265625 -85.109375 C 55.992188 -88.160156 56.019531 -91.144531 54.34375 -94.0625 C 54.238281 -94.15625 54.1875 -94.226562 54.1875 -94.28125 C 54.132812 -94.28125 54.082031 -94.304688 54.03125 -94.359375 C 53.976562 -94.410156 53.953125 -94.460938 53.953125 -94.515625 C 51.910156 -97.316406 48.671875 -98.71875 44.234375 -98.71875 C 44.078125 -98.71875 43.953125 -98.691406 43.859375 -98.640625 L 43.015625 -98.640625 C 42.910156 -98.640625 42.832031 -98.640625 42.78125 -98.640625 C 42.726562 -98.597656 42.675781 -98.578125 42.625 -98.578125 C 41.707031 -98.472656 40.507812 -98.191406 39.03125 -97.734375 C 37.957031 -97.421875 36.988281 -96.832031 36.125 -95.96875 L 35.96875 -95.8125 L 35.96875 -95.515625 L 35.890625 -95.4375 C 35.835938 -95.382812 35.8125 -95.332031 35.8125 -95.28125 L 35.734375 -95.203125 C 35.734375 -95.148438 35.707031 -95.097656 35.65625 -95.046875 L 35.65625 -94.96875 C 35.65625 -94.914062 35.609375 -94.84375 35.515625 -94.75 C 35.515625 -94.59375 35.488281 -94.488281 35.4375 -94.4375 C 35.4375 -94.28125 35.410156 -94.175781 35.359375 -94.125 C 35.253906 -92.289062 35.175781 -90.457031 35.125 -88.625 C 35.070312 -86.738281 35.046875 -84.875 35.046875 -83.03125 Z M 44.625 -17.53125 C 45.4375 -17.425781 46.300781 -17.375 47.21875 -17.375 C 47.9375 -17.320312 49.238281 -17.347656 51.125 -17.453125 C 54.4375 -17.597656 57.90625 -18.054688 61.53125 -18.828125 C 65.101562 -19.535156 68.289062 -20.8125 71.09375 -22.65625 C 75.84375 -25.769531 77.832031 -30.003906 77.0625 -35.359375 C 76.957031 -35.765625 76.90625 -36.046875 76.90625 -36.203125 C 76.863281 -36.304688 76.816406 -36.429688 76.765625 -36.578125 C 76.710938 -36.679688 76.6875 -36.8125 76.6875 -36.96875 C 75.613281 -40.6875 73.492188 -43.488281 70.328125 -45.375 C 67.117188 -47.21875 63.394531 -48.140625 59.15625 -48.140625 C 57.570312 -48.140625 55.988281 -48.0625 54.40625 -47.90625 C 51.09375 -47.65625 48.035156 -47.171875 45.234375 -46.453125 C 43.847656 -46.046875 42.625 -45.664062 41.5625 -45.3125 C 40.382812 -44.800781 39.566406 -44.316406 39.109375 -43.859375 C 38.492188 -43.347656 38.238281 -42.8125 38.34375 -42.25 C 38.445312 -41.476562 38.648438 -40.378906 38.953125 -38.953125 C 39.972656 -33.492188 41.222656 -28.265625 42.703125 -23.265625 C 43.003906 -22.191406 43.335938 -21.222656 43.703125 -20.359375 C 43.847656 -19.898438 44 -19.441406 44.15625 -18.984375 C 44.3125 -18.472656 44.46875 -17.988281 44.625 -17.53125 Z M 44.625 -17.53125 "/></g></g></g></g></g><g transform="matrix(1, 0, 0, 1, 111, 96)"><g clip-path="url(#b83452b793)"><g fill="#31a768" fill-opacity="1"><g transform="translate(1.056193, 160.480351)"><g><path d="M 67.65625 -28.78125 C 63.820312 -27.394531 58.539062 -26.21875 51.8125 -25.25 C 45.019531 -24.28125 39.332031 -23.925781 34.75 -24.1875 C 33.570312 -18.625 32.675781 -13.597656 32.0625 -9.109375 C 31.40625 -4.773438 29.925781 -2.222656 27.625 -1.453125 C 25.28125 -0.691406 22.398438 -0.613281 18.984375 -1.21875 C 16.628906 -1.632812 14.050781 -2.375 11.25 -3.4375 C 8.394531 -4.457031 6.019531 -5.734375 4.125 -7.265625 C 2.550781 -8.597656 1.484375 -10.4375 0.921875 -12.78125 C 0.460938 -14.5625 0.207031 -16.445312 0.15625 -18.4375 C 0.0507812 -20.382812 0.0507812 -22.273438 0.15625 -24.109375 C 0.40625 -29.160156 1.425781 -35.585938 3.21875 -43.390625 C 5 -51.203125 7.21875 -59.210938 9.875 -67.421875 C 12.476562 -75.640625 15.359375 -83.523438 18.515625 -91.078125 C 21.628906 -98.617188 24.664062 -104.6875 27.625 -109.28125 C 29.101562 -111.632812 30.914062 -114.007812 33.0625 -116.40625 C 35.207031 -118.75 37.734375 -120.226562 40.640625 -120.84375 C 43.546875 -121.457031 47.394531 -121.378906 52.1875 -120.609375 C 56.988281 -119.847656 60.585938 -118.472656 62.984375 -116.484375 C 67.171875 -114.234375 71.535156 -109.179688 76.078125 -101.328125 C 80.566406 -93.472656 84.722656 -84.820312 88.546875 -75.375 C 92.367188 -65.882812 95.660156 -56.628906 98.421875 -47.609375 C 101.117188 -38.578125 102.773438 -31.816406 103.390625 -27.328125 C 104.003906 -22.835938 104.109375 -19.0625 103.703125 -16 C 103.242188 -13.445312 102.296875 -11.53125 100.859375 -10.25 C 99.078125 -8.519531 96.832031 -7.015625 94.125 -5.734375 C 91.425781 -4.460938 88.925781 -3.519531 86.625 -2.90625 C 83.257812 -1.988281 80.378906 -1.835938 77.984375 -2.453125 C 75.585938 -3.015625 73.929688 -5.410156 73.015625 -9.640625 C 71.628906 -15.304688 69.84375 -21.6875 67.65625 -28.78125 Z M 38.421875 -39.109375 C 46.222656 -39.003906 54.382812 -39.972656 62.90625 -42.015625 C 58.976562 -52.316406 54.539062 -62.140625 49.59375 -71.484375 C 45.351562 -61.535156 41.628906 -50.742188 38.421875 -39.109375 Z M 38.421875 -39.109375 "/></g></g></g></g></g><g transform="matrix(1, 0, 0, 1, 248, 247)"><g clip-path="url(#ab19a8d126)"><g fill="#25754a" fill-opacity="1"><g transform="translate(4.80832, 20.852477)"><g><path d="M 1 -7.15625 C 1.195312 -7.613281 1.429688 -8.0625 1.703125 -8.5 C 1.972656 -8.9375 2.253906 -9.304688 2.546875 -9.609375 C 2.660156 -9.742188 2.796875 -9.882812 2.953125 -10.03125 C 3.109375 -10.132812 3.273438 -10.195312 3.453125 -10.21875 C 3.648438 -10.226562 3.972656 -10.113281 4.421875 -9.875 C 4.878906 -9.625 5.015625 -9.347656 4.828125 -9.046875 C 4.773438 -8.953125 4.710938 -8.867188 4.640625 -8.796875 C 4.566406 -8.734375 4.5 -8.664062 4.4375 -8.59375 C 4.050781 -8.1875 3.722656 -7.78125 3.453125 -7.375 C 3.179688 -6.976562 2.929688 -6.554688 2.703125 -6.109375 C 2.972656 -5.992188 3.320312 -5.832031 3.75 -5.625 C 4.195312 -5.425781 4.648438 -5.210938 5.109375 -4.984375 C 5.554688 -4.765625 5.972656 -4.550781 6.359375 -4.34375 C 6.742188 -4.144531 7.003906 -4 7.140625 -3.90625 C 7.460938 -3.664062 7.472656 -3.316406 7.171875 -2.859375 C 6.867188 -2.390625 6.625 -2.109375 6.4375 -2.015625 C 6.25 -1.941406 5.960938 -1.96875 5.578125 -2.09375 C 5.191406 -2.21875 4.789062 -2.382812 4.375 -2.59375 C 3.9375 -2.800781 3.53125 -3.015625 3.15625 -3.234375 C 2.769531 -3.460938 2.5 -3.640625 2.34375 -3.765625 C 2.269531 -3.816406 2.203125 -3.875 2.140625 -3.9375 C 2.472656 -3.238281 2.816406 -2.640625 3.171875 -2.140625 C 3.234375 -2.054688 3.300781 -1.96875 3.375 -1.875 C 3.445312 -1.78125 3.5 -1.691406 3.53125 -1.609375 C 3.59375 -1.421875 3.546875 -1.257812 3.390625 -1.125 C 3.234375 -0.988281 3.039062 -0.878906 2.8125 -0.796875 C 2.59375 -0.691406 2.359375 -0.625 2.109375 -0.59375 C 1.867188 -0.550781 1.6875 -0.539062 1.5625 -0.5625 C 1.363281 -0.59375 1.1875 -0.695312 1.03125 -0.875 C 0.875 -1.019531 0.738281 -1.171875 0.625 -1.328125 C 0.40625 -1.648438 0.179688 -2.078125 -0.046875 -2.609375 C -0.296875 -3.117188 -0.519531 -3.660156 -0.71875 -4.234375 C -0.914062 -4.804688 -1.085938 -5.363281 -1.234375 -5.90625 C -1.378906 -6.445312 -1.460938 -6.894531 -1.484375 -7.25 C -1.503906 -7.582031 -1.5 -7.847656 -1.46875 -8.046875 C -1.4375 -8.222656 -1.363281 -8.359375 -1.25 -8.453125 C -1.125 -8.554688 -0.960938 -8.644531 -0.765625 -8.71875 C -0.566406 -8.800781 -0.382812 -8.859375 -0.21875 -8.890625 C 0.0195312 -8.953125 0.21875 -8.957031 0.375 -8.90625 C 0.539062 -8.851562 0.65625 -8.675781 0.71875 -8.375 C 0.78125 -7.96875 0.875 -7.5625 1 -7.15625 Z M 1 -7.15625 "/></g></g></g><g fill="#25754a" fill-opacity="1"><g transform="translate(15.237674, 18.193889)"><g><path d="M 1.421875 -3.078125 C 1.335938 -2.984375 1.316406 -2.914062 1.359375 -2.875 C 1.671875 -2.613281 1.984375 -2.472656 2.296875 -2.453125 C 2.597656 -2.453125 2.921875 -2.523438 3.265625 -2.671875 C 3.523438 -2.804688 3.796875 -3.078125 4.078125 -3.484375 C 4.359375 -3.859375 4.679688 -3.960938 5.046875 -3.796875 C 5.410156 -3.617188 5.476562 -3.316406 5.25 -2.890625 C 4.988281 -2.441406 4.769531 -2.140625 4.59375 -1.984375 C 4.425781 -1.828125 4.21875 -1.6875 3.96875 -1.5625 C 3.726562 -1.4375 3.476562 -1.34375 3.21875 -1.28125 C 2.875 -1.1875 2.519531 -1.144531 2.15625 -1.15625 C 1.882812 -1.144531 1.601562 -1.175781 1.3125 -1.25 C 1.03125 -1.320312 0.765625 -1.445312 0.515625 -1.625 C 0.046875 -1.914062 -0.34375 -2.289062 -0.65625 -2.75 C -1.050781 -3.5 -1.101562 -4.234375 -0.8125 -4.953125 C -0.632812 -5.316406 -0.390625 -5.640625 -0.078125 -5.921875 C 0.222656 -6.171875 0.601562 -6.425781 1.0625 -6.6875 C 1.53125 -6.9375 2.0625 -7.023438 2.65625 -6.953125 C 3.257812 -6.878906 3.722656 -6.597656 4.046875 -6.109375 C 4.367188 -5.640625 4.523438 -5.289062 4.515625 -5.0625 C 4.515625 -4.832031 4.425781 -4.65625 4.25 -4.53125 C 4.082031 -4.40625 3.140625 -3.921875 1.421875 -3.078125 Z M 1.859375 -5.453125 C 1.410156 -5.316406 1.117188 -5.125 0.984375 -4.875 C 0.847656 -4.601562 0.78125 -4.398438 0.78125 -4.265625 C 0.769531 -4.234375 0.789062 -4.203125 0.84375 -4.171875 C 0.894531 -4.140625 1.585938 -4.476562 2.921875 -5.1875 C 2.671875 -5.488281 2.316406 -5.578125 1.859375 -5.453125 Z M 1.859375 -5.453125 "/></g></g></g><g fill="#25754a" fill-opacity="1"><g transform="translate(23.253737, 15.043762)"><g><path d="M 1.0625 -3.21875 C 0.988281 -3.113281 0.972656 -3.039062 1.015625 -3 C 1.367188 -2.78125 1.695312 -2.675781 2 -2.6875 C 2.3125 -2.726562 2.625 -2.84375 2.9375 -3.03125 C 3.175781 -3.195312 3.414062 -3.492188 3.65625 -3.921875 C 3.882812 -4.328125 4.191406 -4.46875 4.578125 -4.34375 C 4.960938 -4.21875 5.0625 -3.929688 4.875 -3.484375 C 4.664062 -3.003906 4.484375 -2.675781 4.328125 -2.5 C 4.179688 -2.3125 3.992188 -2.148438 3.765625 -2.015625 C 3.546875 -1.859375 3.300781 -1.734375 3.03125 -1.640625 C 2.707031 -1.503906 2.367188 -1.421875 2.015625 -1.390625 C 1.742188 -1.359375 1.457031 -1.359375 1.15625 -1.390625 C 0.875 -1.421875 0.597656 -1.515625 0.328125 -1.671875 C -0.179688 -1.910156 -0.609375 -2.242188 -0.953125 -2.671875 C -1.429688 -3.359375 -1.570312 -4.078125 -1.375 -4.828125 C -1.238281 -5.210938 -1.03125 -5.554688 -0.75 -5.859375 C -0.476562 -6.160156 -0.128906 -6.460938 0.296875 -6.765625 C 0.722656 -7.054688 1.238281 -7.203125 1.84375 -7.203125 C 2.445312 -7.203125 2.9375 -6.976562 3.3125 -6.53125 C 3.6875 -6.09375 3.882812 -5.765625 3.90625 -5.546875 C 3.925781 -5.328125 3.859375 -5.144531 3.703125 -5 C 3.546875 -4.851562 2.664062 -4.257812 1.0625 -3.21875 Z M 1.21875 -5.609375 C 0.78125 -5.429688 0.515625 -5.207031 0.421875 -4.9375 C 0.316406 -4.664062 0.269531 -4.46875 0.28125 -4.34375 C 0.269531 -4.300781 0.296875 -4.265625 0.359375 -4.234375 C 0.410156 -4.210938 1.0625 -4.632812 2.3125 -5.5 C 2.03125 -5.757812 1.664062 -5.796875 1.21875 -5.609375 Z M 1.21875 -5.609375 "/></g></g></g></g></g><g fill="#3d98d6" fill-opacity="1"><g transform="translate(18.939344, 237.344267)"><g><path d="M 2.140625 -100.9375 C 3.265625 -102.21875 5.359375 -102.65625 8.421875 -102.25 C 12.554688 -101.738281 16.914062 -101.484375 21.5 -101.484375 C 30.988281 -101.484375 40.429688 -102.375 49.828125 -104.15625 C 59.210938 -105.945312 68.546875 -107.785156 77.828125 -109.671875 C 80.890625 -110.285156 83.953125 -111.148438 87.015625 -112.265625 C 90.023438 -113.335938 93.085938 -114.078125 96.203125 -114.484375 C 99.773438 -114.941406 102.425781 -113.921875 104.15625 -111.421875 C 106.144531 -108.515625 107.648438 -103.820312 108.671875 -97.34375 C 109.691406 -90.863281 109.515625 -86.066406 108.140625 -82.953125 C 107.222656 -81.066406 105.640625 -79.585938 103.390625 -78.515625 C 101.148438 -77.441406 99.132812 -76.523438 97.34375 -75.765625 C 94.945312 -74.742188 92.320312 -73.644531 89.46875 -72.46875 C 86.601562 -71.300781 84.359375 -69.644531 82.734375 -67.5 C 81.046875 -65.300781 80.5625 -62.1875 81.28125 -58.15625 C 81.988281 -54.082031 82.5 -50.664062 82.8125 -47.90625 C 83.414062 -42.195312 84.203125 -36.175781 85.171875 -29.84375 C 86.097656 -23.519531 86.484375 -17.523438 86.328125 -11.859375 C 86.222656 -8.796875 85.226562 -6.578125 83.34375 -5.203125 C 80.632812 -3.265625 77.289062 -1.910156 73.3125 -1.140625 C 69.332031 -0.378906 65.738281 0 62.53125 0 C 61.195312 0 59.738281 -0.203125 58.15625 -0.609375 C 56.582031 -0.960938 55.515625 -1.832031 54.953125 -3.21875 C 53.878906 -5.613281 53.0625 -7.78125 52.5 -9.71875 C 50.5625 -15.945312 49.207031 -22.300781 48.4375 -28.78125 C 47.625 -35.257812 46.453125 -41.660156 44.921875 -47.984375 C 44.210938 -51.148438 43.164062 -54.492188 41.78125 -58.015625 C 41.019531 -60.003906 39.285156 -61.253906 36.578125 -61.765625 C 33.878906 -62.273438 31.660156 -62.601562 29.921875 -62.75 C 26.660156 -63.007812 23.269531 -63.21875 19.75 -63.375 C 16.226562 -63.46875 12.988281 -64.207031 10.03125 -65.59375 C 7.425781 -66.757812 5.816406 -68.285156 5.203125 -70.171875 C 4.535156 -72.066406 3.898438 -74.265625 3.296875 -76.765625 C 2.117188 -81.097656 1.425781 -85.5625 1.21875 -90.15625 C 1.125 -91.375 1 -93.1875 0.84375 -95.59375 C 0.632812 -97.9375 1.066406 -99.71875 2.140625 -100.9375 Z M 2.140625 -100.9375 "/></g></g></g><g transform="matrix(1, 0, 0, 1, 278, 248)"><g clip-path="url(#c1e878a9fe)"><g fill="#25754a" fill-opacity="1"><g transform="translate(1.645126, 11.259496)"><g><path d="M 5.09375 -1.515625 C 5.175781 -1.785156 5.113281 -2.101562 4.90625 -2.46875 C 4.6875 -2.832031 4.410156 -2.988281 4.078125 -2.9375 C 3.847656 -2.894531 3.691406 -2.789062 3.609375 -2.625 C 3.515625 -2.46875 3.472656 -2.289062 3.484375 -2.09375 C 3.460938 -1.863281 3.53125 -1.65625 3.6875 -1.46875 C 3.832031 -1.269531 3.988281 -1.132812 4.15625 -1.0625 C 4.332031 -0.976562 4.515625 -0.96875 4.703125 -1.03125 C 4.890625 -1.09375 5.019531 -1.253906 5.09375 -1.515625 Z M 3.5 -4.171875 C 3.664062 -4.242188 3.820312 -4.300781 3.96875 -4.34375 C 4.34375 -4.425781 4.710938 -4.429688 5.078125 -4.359375 C 5.460938 -4.273438 5.8125 -4.117188 6.125 -3.890625 C 6.351562 -3.722656 6.554688 -3.53125 6.734375 -3.3125 C 6.898438 -3.070312 7.007812 -2.804688 7.0625 -2.515625 C 7.09375 -2.242188 7.070312 -1.941406 7 -1.609375 C 6.875 -1.128906 6.65625 -0.722656 6.34375 -0.390625 C 6.175781 -0.234375 6.007812 -0.0820312 5.84375 0.0625 C 5.664062 0.207031 5.472656 0.335938 5.265625 0.453125 C 5.179688 0.492188 5.09375 0.535156 5 0.578125 C 4.457031 0.835938 3.898438 0.953125 3.328125 0.921875 C 2.859375 0.910156 2.5 0.816406 2.25 0.640625 C 1.925781 1.859375 1.742188 2.492188 1.703125 2.546875 C 1.609375 2.617188 1.507812 2.660156 1.40625 2.671875 C 1.289062 2.691406 1.132812 2.671875 0.9375 2.609375 C 0.71875 2.566406 0.554688 2.519531 0.453125 2.46875 C 0.296875 2.394531 0.175781 2.3125 0.09375 2.21875 C 0.0078125 2.125 0.144531 1.566406 0.5 0.546875 C 0.832031 -0.472656 1.109375 -1.410156 1.328125 -2.265625 C 1.554688 -3.128906 1.664062 -3.921875 1.65625 -4.640625 C 1.664062 -4.722656 1.664062 -4.804688 1.65625 -4.890625 C 1.65625 -4.960938 1.671875 -5.035156 1.703125 -5.109375 C 1.742188 -5.242188 1.832031 -5.320312 1.96875 -5.34375 C 2.125 -5.351562 2.285156 -5.335938 2.453125 -5.296875 C 2.617188 -5.253906 2.78125 -5.191406 2.9375 -5.109375 C 3.113281 -5.023438 3.222656 -4.957031 3.265625 -4.90625 C 3.378906 -4.789062 3.441406 -4.65625 3.453125 -4.5 C 3.472656 -4.382812 3.488281 -4.273438 3.5 -4.171875 Z M 3.5 -4.171875 "/></g></g></g></g></g></svg>